<?xml version="1.0" standalone="no"?>
<!DOCTYPE svg PUBLIC "-//W3C//DTD SVG 20010904//EN"
 "http://www.w3.org/TR/2001/REC-SVG-20010904/DTD/svg10.dtd">
<svg version="1.0" xmlns="http://www.w3.org/2000/svg"
 width="2116.000000pt" height="2116.000000pt" viewBox="0 0 2116.000000 2116.000000"
 preserveAspectRatio="xMidYMid meet">
<metadata>
Created by potrace 1.14, written by Peter Selinger 2001-2017
</metadata>
<g transform="translate(0.000000,2116.000000) scale(0.100000,-0.100000)"
fill="#000000" stroke="none">
<path d="M10115 21113 c-436 -25 -684 -48 -980 -89 -2746 -379 -5227 -1822
-6927 -4029 -794 -1031 -1398 -2220 -1762 -3470 -387 -1328 -509 -2750 -355
-4135 214 -1934 963 -3771 2163 -5309 287 -369 494 -601 875 -982 307 -306
517 -497 796 -724 1070 -869 2281 -1513 3595 -1912 780 -236 1563 -376 2440
-435 404 -27 1125 -14 1590 28 3625 328 6842 2529 8478 5799 586 1173 949
2453 1066 3765 96 1065 25 2187 -200 3205 -369 1664 -1101 3166 -2184 4475
-285 344 -736 815 -1050 1097 -735 659 -1504 1185 -2360 1613 -1306 653 -2705
1021 -4185 1100 -168 9 -867 11 -1000 3z m-781 -2413 c-88 -416 -169 -958
-209 -1385 -36 -394 -40 -507 -40 -1080 0 -574 5 -698 41 -1080 209 -2215
1053 -4271 2434 -5930 416 -500 953 -1030 1453 -1433 1278 -1031 2782 -1749
4432 -2116 591 -131 1248 -224 1815 -256 270 -16 291 -20 160 -37 -454 -56
-867 -77 -1405 -70 -602 8 -993 43 -1545 138 -1383 238 -2702 790 -3835 1604
-496 356 -999 802 -1426 1263 -110 118 -116 123 -142 113 -65 -25 -458 -69
-907 -102 -85 -7 -407 -13 -715 -15 l-560 -3 -96 -454 c-52 -249 -105 -495
-117 -547 -58 -247 -183 -379 -404 -424 -100 -21 -214 -20 -380 1 -114 15
-216 18 -708 17 -316 0 -649 -5 -739 -12 -158 -10 -167 -10 -213 10 -26 11
-64 38 -83 59 -30 33 -35 46 -35 87 0 103 55 175 414 541 138 141 276 288 307
326 261 323 585 875 772 1315 179 421 1008 2294 1070 2416 25 49 108 208 186
353 78 145 141 271 141 280 0 9 -27 122 -60 252 -482 1909 -398 3917 245 5854
63 190 188 536 192 531 1 -1 -18 -98 -43 -216z m507 101 c36 -36 37 -73 4
-106 -34 -35 -86 -34 -114 1 -35 45 -25 96 24 122 33 18 55 14 86 -17z m-1833
-513 c4 -20 -26 -50 -46 -46 -8 2 -21 13 -29 25 -13 19 -12 24 7 43 19 19 24
20 43 7 12 -8 23 -21 25 -29z m3112 -74 c47 -46 26 -131 -39 -155 -31 -12 -86
6 -106 34 -18 25 -20 80 -4 108 14 27 67 49 99 42 14 -3 36 -16 50 -29z
m-2236 -6 c15 -24 -3 -52 -37 -56 -32 -4 -49 23 -36 56 7 18 15 23 35 20 15
-2 32 -11 38 -20z m4587 -68 c29 -16 51 -67 44 -100 -8 -38 -59 -80 -95 -80
-16 0 -42 11 -59 26 -85 71 12 206 110 154z m-3287 -271 c54 -43 21 -139 -49
-139 -71 0 -105 90 -51 137 34 28 65 29 100 2z m4470 -255 c19 -18 19 -20 6
-45 -19 -34 -80 -19 -80 21 0 38 46 53 74 24z m-3010 -185 c38 -30 49 -64 36
-105 -15 -43 -45 -64 -93 -64 -86 0 -122 102 -56 163 36 33 76 35 113 6z m966
-244 c41 -21 60 -53 60 -101 0 -52 -28 -90 -79 -105 -69 -20 -141 34 -141 106
0 40 28 85 63 100 42 18 62 18 97 0z m1367 -417 c48 -45 13 -138 -52 -138 -30
0 -85 49 -85 75 0 22 27 72 42 78 31 13 73 6 95 -15z m-2421 -82 c28 -28 34
-42 34 -76 0 -35 -6 -48 -35 -77 -33 -33 -39 -35 -81 -30 -31 3 -55 13 -71 30
-17 16 -27 40 -30 71 -5 42 -3 48 30 81 29 29 42 35 77 35 34 0 48 -6 76 -34z
m1024 -174 c0 -33 4 -39 30 -49 16 -6 39 -27 51 -47 18 -30 26 -36 56 -36 20
0 32 -4 28 -10 -3 -5 -19 -10 -35 -10 -23 0 -32 -7 -45 -34 -10 -20 -31 -41
-51 -51 -30 -14 -34 -20 -34 -55 0 -22 -4 -40 -10 -40 -5 0 -10 18 -10 40 0
30 -5 42 -17 47 -29 10 -73 55 -73 75 0 15 -8 18 -44 18 -25 0 -48 5 -51 10
-4 6 11 10 38 10 41 0 47 3 66 36 12 20 35 41 51 47 26 10 30 16 30 49 0 21 5
38 10 38 6 0 10 -17 10 -38z m-1369 -71 c41 -41 40 -91 -1 -133 -28 -27 -36
-30 -73 -25 -84 11 -116 99 -58 158 22 21 39 29 66 29 27 0 44 -8 66 -29z
m4634 -76 c27 -26 31 -51 14 -88 -12 -26 -47 -47 -80 -47 -31 0 -69 44 -69 80
0 19 9 40 25 55 15 16 36 25 55 25 19 0 40 -9 55 -25z m-3615 0 c59 -30 68
-98 21 -146 -78 -77 -200 14 -147 110 15 26 51 50 79 51 10 0 31 -7 47 -15z
m1156 -234 c96 -58 52 -201 -63 -201 -63 0 -103 40 -103 103 0 93 88 145 166
98z m3589 -84 c21 -16 15 -61 -11 -71 -39 -15 -73 41 -42 72 16 16 30 15 53
-1z m-12136 -2802 c396 -50 684 -174 981 -421 129 -107 407 -402 455 -483 9
-16 10 -16 -74 37 -77 49 -259 135 -371 175 -117 43 -271 81 -415 103 -134 20
-437 23 -575 5 -286 -37 -549 -116 -795 -241 -772 -390 -1281 -1137 -1414
-2075 -40 -285 -36 -490 14 -741 136 -674 612 -1247 1245 -1498 63 -25 157
-56 208 -70 l94 -25 233 472 c129 259 232 473 231 475 -2 2 -160 -62 -350
-142 -190 -81 -357 -146 -371 -146 -77 0 -134 64 -120 136 7 41 -77 -16 829
569 l739 477 76 -11 c202 -30 301 -145 270 -314 -6 -33 -17 -76 -25 -96 -14
-36 -19 -38 -452 -219 -240 -101 -454 -191 -474 -200 l-37 -17 314 -440 c174
-242 322 -444 329 -449 31 -21 374 136 590 271 205 127 477 346 599 482 21 24
40 41 43 39 7 -8 -65 -263 -109 -389 -141 -397 -326 -689 -608 -964 -178 -173
-327 -279 -545 -388 -410 -204 -860 -282 -1340 -232 -546 58 -1052 262 -1494
606 -121 94 -348 315 -453 442 -371 448 -599 961 -679 1527 -19 140 -16 567 5
750 131 1094 659 1991 1497 2542 392 258 863 422 1345 467 135 13 452 6 604
-14z m8689 -1401 c126 -51 196 -197 158 -328 -44 -149 -208 -232 -359 -180
l-47 16 -43 -39 c-24 -21 -450 -409 -946 -863 -516 -472 -912 -826 -924 -828
-15 -2 -33 9 -54 30 -40 43 -134 174 -186 261 -34 58 -38 70 -26 81 8 7 453
318 989 691 536 373 1003 698 1037 722 l63 45 -16 30 c-24 47 -29 127 -11 189
45 152 216 233 365 173z m6674 -2574 c25 -26 29 -36 24 -63 -12 -64 -86 -89
-133 -45 -38 36 -27 109 20 128 38 15 58 11 89 -20z m-928 -696 c21 -21 20
-37 -3 -58 -15 -14 -24 -15 -39 -7 -28 15 -33 35 -16 60 18 25 37 27 58 5z
m-502 -624 c25 -26 29 -36 24 -63 -12 -64 -86 -89 -133 -45 -38 36 -27 109 20
128 38 15 58 11 89 -20z m1149 -209 c77 -78 -13 -197 -110 -146 -57 29 -68
100 -22 146 22 21 39 29 66 29 27 0 44 -8 66 -29z m-3620 -1027 c16 -8 39 -29
49 -47 17 -27 27 -33 67 -38 l48 -5 -52 -8 c-40 -7 -53 -13 -53 -25 0 -19 -45
-64 -72 -74 -13 -5 -18 -17 -18 -47 0 -25 -4 -39 -10 -35 -5 3 -10 22 -10 41
0 27 -5 36 -24 44 -26 9 -66 55 -66 75 0 8 -24 16 -62 21 l-63 8 58 6 c51 4
59 8 77 37 10 18 33 39 50 48 24 12 30 22 30 49 0 49 15 54 18 7 3 -34 8 -44
33 -57z m2873 34 c15 -24 -3 -52 -37 -56 -35 -4 -52 26 -31 57 18 26 51 25 68
-1z m-695 -203 c57 -29 65 -115 14 -155 -40 -32 -95 -27 -127 11 -71 84 16
195 113 144z m32 -514 c21 -22 29 -39 29 -66 0 -80 -100 -126 -155 -71 -34 34
-41 71 -21 112 28 60 99 72 147 25z m-1202 -985 c56 -29 67 -102 22 -147 -80
-80 -210 27 -145 119 28 41 77 52 123 28z m-204 -690 c121 -51 50 -241 -78
-205 -117 32 -95 214 26 218 10 1 33 -5 52 -13z m-764 -395 c21 -22 29 -39 29
-66 0 -80 -100 -126 -155 -71 -65 65 -24 164 68 166 19 0 39 -10 58 -29z
m-245 -285 c28 -28 34 -42 34 -76 0 -34 -6 -48 -34 -76 -28 -28 -42 -34 -76
-34 -34 0 -48 6 -76 34 -28 28 -34 42 -34 76 0 34 6 48 34 76 28 28 42 34 76
34 34 0 48 -6 76 -34z m562 -560 c69 -36 75 -145 11 -190 -33 -22 -100 -21
-131 4 -40 31 -53 73 -39 121 20 67 96 98 159 65z m-2050 -110 c26 -13 43 -37
55 -78 11 -33 -13 -88 -46 -108 -62 -38 -131 -21 -162 40 -19 37 -19 63 0 100
28 54 98 75 153 46z m-2210 -479 c50 -46 12 -127 -59 -127 -64 0 -99 66 -63
118 31 45 78 49 122 9z m1199 -709 c47 -44 13 -138 -50 -138 -32 0 -73 33 -81
65 -7 27 15 80 36 88 31 13 73 6 95 -15z m1102 -76 c12 -23 -11 -62 -38 -62
-21 0 -41 19 -41 40 0 39 61 56 79 22z"/>
<path d="M9440 11038 c0 -3 -79 -396 -175 -874 -96 -477 -173 -870 -171 -871
10 -10 300 -22 516 -23 339 0 568 22 711 67 l56 18 -108 164 c-280 422 -555
922 -756 1370 -62 138 -73 161 -73 149z"/>
<path d="M5375 9780 c-11 -18 236 -350 260 -350 18 0 25 23 25 83 0 112 -51
204 -139 249 -54 29 -134 38 -146 18z"/>
<path d="M4528 8385 c-109 -217 -194 -396 -190 -399 5 -3 74 -10 153 -16 214
-16 424 2 652 56 l108 26 -24 31 c-13 18 -130 182 -261 365 -130 182 -238 332
-239 332 -1 0 -91 -178 -199 -395z"/>
</g>
</svg>
